<svg width="512" height="512" viewBox="0 0 512 512" fill="none" xmlns="http://www.w3.org/2000/svg">
  <rect width="512" height="512" rx="120" fill="#F5EEE6"/>
  <path d="M319 80C331 58 360 52 379 66C394 77 398 99 388 114C378 129 358 133 343 123C323 110 311 93 319 80Z" fill="#D97B60"/>
  <path d="M383 121C394 102 419 97 435 110C448 121 450 141 440 156C430 171 412 175 397 166C379 155 374 137 383 121Z" fill="#D97B60"/>
  <circle cx="256" cy="195" r="107" fill="#A9DDE1" stroke="#244C74" stroke-width="16"/>
  <path d="M184 108C205 96 228 96 241 111C249 120 248 135 237 142C220 152 203 155 188 153C173 151 169 117 184 108Z" fill="#8FB872"/>
  <path d="M279 106C297 100 317 104 331 118C345 132 342 150 326 154C306 159 286 157 270 148C255 140 260 113 279 106Z" fill="#8FB872"/>
  <path d="M162 185C181 171 205 169 225 178C243 186 250 205 239 219C227 235 207 243 187 240C164 236 144 198 162 185Z" fill="#8FB872"/>
  <path d="M271 211C288 194 314 188 337 195C357 201 365 221 355 237C343 255 320 265 298 262C273 258 255 227 271 211Z" fill="#8FB872"/>
  <path d="M97 208C90 259 104 304 137 342C172 383 218 404 276 405C332 406 377 387 414 350C438 325 453 294 459 256C460 332 423 391 356 431C286 473 213 475 144 439C81 406 44 347 40 273C38 245 42 216 53 188C61 168 76 168 85 188C89 196 93 203 97 208Z" fill="#244C74"/>
  <path d="M107 231C146 263 187 279 233 281C280 283 323 271 364 246C332 294 285 323 223 334C180 341 142 339 109 326C101 297 100 266 107 231Z" fill="#F0AE52"/>
  <path d="M97 208C139 239 184 254 233 255C281 256 325 245 366 222C363 239 358 255 349 269C315 292 278 304 235 306C189 307 148 296 113 273C103 253 97 231 97 208Z" fill="#F4BA61"/>
  <path d="M122 302C158 320 196 329 239 328C283 327 321 315 355 293C344 318 326 339 302 355C249 371 197 367 146 343C136 330 128 316 122 302Z" fill="#EAA64D"/>
  <path d="M170 370C223 385 274 381 323 358C307 377 287 392 263 403C225 404 189 394 154 376C159 374 165 372 170 370Z" fill="#E79F46"/>
</svg>